<svg width="49" height="49" viewBox="0 0 49 49" fill="none" xmlns="http://www.w3.org/2000/svg">
<rect width="48" height="48" transform="translate(0.5 0.861328)" fill="white"/>
<path d="M14.9944 9.89102C13.722 8.0988 13.1209 6.52281 12.9834 5.84952C11.6449 0.583792 12.611 6.72282 12.2037 8.36784C11.7847 10.0602 11.2924 11.5948 11.1997 13.7268C11.0627 16.8742 12.2375 18.3833 13.402 18.434C14.5425 18.339 14.9487 17.4101 15.3723 16.0106C15.7627 14.7209 16.0677 11.4027 14.9944 9.89102Z" stroke="black"/>
<path d="M29.8385 10.1122C30.5872 9.26402 31.1671 7.86116 31.416 7.22063C32.9657 2.51548 32.0145 2.48029 32.5794 8.01385C32.6927 9.12365 33.0542 9.96407 33.3811 12.7763C33.8745 17.0258 32.0665 19.3034 30.5355 19.1101C29.4445 18.9723 28.6445 17.9511 28.4258 15.5611C28.207 13.1711 28.7144 11.3859 29.8385 10.1122Z" stroke="black"/>
<path d="M31.8687 27.127C30.3687 28.627 46.056 26.8616 42.5005 41.3616C42.5005 42.5737 44.0005 42.3616 43.5005 44.3616C43.2293 45.4463 42.0004 45.3616 40.5004 45.3616C39.3004 45.3616 32.997 45.528 29.0004 45.3616C27.9609 45.3184 27.0932 44.9485 26.753 43.8695C26.4183 42.8082 27.1253 42.0449 29.0004 41.3616C32.1519 40.2134 37.5004 42.3616 39.0004 41.3616" stroke="black" stroke-linecap="round" stroke-linejoin="round"/>
<path d="M15.791 12.7715C15.791 12.7715 16.6371 13.6152 17.6371 13.6152C18.6371 13.6152 25.4289 12.3565 28.2289 13.9565M32.1728 18.3831C32.6728 20.5497 33.2784 24.2424 31.8163 27.2227" stroke="black" stroke-linecap="round" stroke-linejoin="round"/>
<path d="M12.6698 18.2716C13.0031 18.9382 13.0008 21.9195 13.0006 23.3617C13.0004 25.3617 14.0004 27.3613 15.0004 28.3617C15.7907 29.1525 21.0003 32.8617 26.5003 30.8617M16.5003 21.3617C16.5003 21.5521 16.5148 21.7787 16.5493 22.0209M16.5493 22.0209C16.6961 23.0507 17.2049 24.3617 18.5003 24.3617C20.1003 24.3617 19.8336 23.0284 19.5003 22.3617C18.6996 22.3012 16.9885 22.1482 16.5493 22.0209Z" stroke="black" stroke-linecap="round"/>
<path d="M29.9258 21.8203C29.9032 22.0094 29.862 22.2327 29.799 22.469M29.799 22.469C29.5312 23.4742 28.8706 24.7157 27.5843 24.5621C25.9956 24.3725 26.4184 23.0802 26.8284 22.4577C27.6306 22.4925 29.3478 22.5434 29.799 22.469Z" stroke="black" stroke-linecap="round"/>
<path d="M17.5 29.8613C17.1667 30.8613 17.1504 33.4049 15.9933 34.6344C15.2288 35.4466 13.5 36.8613 13.5 38.3613" stroke="black"/>
<path d="M15.5 37.3613C14.3334 37.6947 11.9 38.4613 11.5 38.8613C11 39.3613 9.50005 40.8613 10 42.8613C10.5 44.8613 13.5 44.8613 14.5 44.8613" stroke="black" stroke-linecap="round" stroke-linejoin="round"/>
<path d="M19.5003 40.3613C18.3337 40.6947 16.133 40.5454 15.5003 40.8613C14.8677 41.1772 13.5003 41.8613 14.0003 43.8613C14.5003 45.8613 17.5002 45.8613 18.5003 45.8613C19.1669 45.8613 21.5003 45.8613 23.0003 44.3613" stroke="black" stroke-linecap="round" stroke-linejoin="round"/>
<path d="M21.5 45.3613C24.5 45.8616 26.9481 45.7997 28.2951 45.1055" stroke="black"/>
<path d="M11.9238 30.5666C14.118 29.6682 18.1027 28.4649 21.789 28.3506M27.5713 29.5706C26.4808 28.8786 25.1229 28.5207 23.6502 28.395" stroke="black" stroke-width="0.5" stroke-linecap="round"/>
<path d="M20.9678 27.9971C22.1429 28.7468 23.3565 28.743 24.6462 28.1122" stroke="black" stroke-width="0.85" stroke-linecap="round"/>
<rect x="3.95372" y="28.4399" width="7.17055" height="7.17055" rx="1.19509" transform="rotate(-22.0912 3.95372 28.4399)" fill="white" stroke="black" stroke-width="0.796728"/>
<path d="M6.94065 30.9241L6.64535 31.044C6.48227 31.1102 6.2964 31.0316 6.23021 30.8685C6.16401 30.7055 6.24256 30.5196 6.40565 30.4534L6.70094 30.3335C8.00564 29.804 9.49258 30.4324 10.0221 31.7371L10.142 32.0324C10.2082 32.1954 10.1296 32.3813 9.96655 32.4475C9.80346 32.5137 9.61759 32.4352 9.5514 32.2721L9.43154 31.9768C9.03438 30.9982 7.91917 30.527 6.94065 30.9241Z" fill="black"/>
<path d="M6.40132 29.4726L6.08494 29.601C5.9102 29.672 5.71106 29.5878 5.64013 29.4131C5.56921 29.2383 5.65337 29.0392 5.82811 28.9683L6.14449 28.8398C8.17516 28.0156 10.6579 29.0649 11.4821 31.0955L11.6105 31.4119C11.6815 31.5866 11.5973 31.7858 11.4226 31.8567C11.2478 31.9276 11.0487 31.8435 10.9778 31.6687L10.8493 31.3523C10.167 29.6712 8.08251 28.7903 6.40132 29.4726Z" fill="black"/>
<circle cx="7.74783" cy="32.4894" r="0.398364" transform="rotate(-22.0912 7.74783 32.4894)" fill="black" stroke="black" stroke-width="0.796728"/>
</svg>
